<svg width="1200" height="420" viewBox="0 0 1200 420" fill="none" xmlns="http://www.w3.org/2000/svg" role="img" aria-labelledby="title desc">
  <title id="title">SGT. Sergeant identity</title>
  <desc id="desc">Sergeant open-source engineering reviewer identity by THETECHGUYDS.</desc>
  <defs>
    <linearGradient id="bg" x1="0" y1="0" x2="1200" y2="420" gradientUnits="userSpaceOnUse">
      <stop offset="0" stop-color="#070B16"/>
      <stop offset="0.48" stop-color="#111A33"/>
      <stop offset="1" stop-color="#05070D"/>
    </linearGradient>
    <linearGradient id="brand" x1="260" y1="92" x2="780" y2="305" gradientUnits="userSpaceOnUse">
      <stop offset="0" stop-color="#5EE6FF"/>
      <stop offset="0.52" stop-color="#2F8CFF"/>
      <stop offset="1" stop-color="#9B7CFF"/>
    </linearGradient>
    <filter id="glow" x="-25%" y="-25%" width="150%" height="150%" color-interpolation-filters="sRGB">
      <feGaussianBlur stdDeviation="8" result="blur"/>
      <feColorMatrix in="blur" type="matrix" values="0 0 0 0 0.37 0 0 0 0 0.9 0 0 0 0 1 0 0 0 .7 0"/>
      <feMerge>
        <feMergeNode/>
        <feMergeNode in="SourceGraphic"/>
      </feMerge>
    </filter>
  </defs>
  <rect width="1200" height="420" rx="34" fill="url(#bg)"/>
  <circle cx="1028" cy="94" r="210" fill="#5EE6FF" opacity="0.08"/>
  <circle cx="122" cy="374" r="190" fill="#9B7CFF" opacity="0.10"/>
  <g filter="url(#glow)">
    <path d="M142 218C142 137.9 207.4 73 288 73s146 64.9 146 145c0 54.3-30.1 101.6-74.6 126.4l-70.9 39.5-72.5-40.8C171.6 318.2 142 271.4 142 218Z" fill="#0C1223" stroke="url(#brand)" stroke-width="7"/>
    <path d="M195 182c18-64 62-91 94-91 32 0 76 27 94 91-35-16-65-23-94-23s-59 7-94 23Z" fill="#121B33" stroke="#AEBBD6" stroke-width="5"/>
    <path d="M214 190h150c-6 45-35 81-75 81s-69-36-75-81Z" fill="#05070D"/>
    <path d="M238 158l50-21 51 21" stroke="url(#brand)" stroke-width="13" stroke-linecap="round" stroke-linejoin="round"/>
    <path d="M250 126l38-16 39 16" stroke="url(#brand)" stroke-width="13" stroke-linecap="round" stroke-linejoin="round"/>
    <rect x="215" y="197" width="48" height="16" rx="8" fill="#EDF3FF"/>
    <rect x="313" y="197" width="48" height="16" rx="8" fill="#EDF3FF"/>
    <path d="M263 205h50" stroke="#EDF3FF" stroke-width="8" stroke-linecap="round"/>
  </g>
  <text x="492" y="185" fill="url(#brand)" font-family="Inter,Segoe UI,Arial,sans-serif" font-size="104" font-weight="900" letter-spacing="2">SGT.</text>
  <text x="500" y="236" fill="#EDF3FF" font-family="Inter,Segoe UI,Arial,sans-serif" font-size="34" font-weight="800" letter-spacing="1.5">SERGEANT</text>
  <text x="500" y="283" fill="#AEBBD6" font-family="Inter,Segoe UI,Arial,sans-serif" font-size="27" font-weight="600">Open-source engineering reviewer</text>
  <text x="500" y="325" fill="#5EE6FF" font-family="Inter,Segoe UI,Arial,sans-serif" font-size="23" font-weight="700">Evidence before opinion. One command. Safe by default.</text>
  <text x="1055" y="360" fill="#9B7CFF" font-family="Inter,Segoe UI,Arial,sans-serif" font-size="24" font-weight="900" text-anchor="end">THETECHGUYDS</text>
</svg>
